<?xml version="1.0" encoding="utf-8"?>
<!-- Generator: Adobe Illustrator 27.7.0, SVG Export Plug-In . SVG Version: 6.00 Build 0)  -->
<svg version="1.1" id="레이어_1" xmlns="http://www.w3.org/2000/svg" xmlns:xlink="http://www.w3.org/1999/xlink" x="0px"
	 y="0px" viewBox="0 0 452.9 512" style="enable-background:new 0 0 452.9 512;" xml:space="preserve">
<style type="text/css">
	.st0{fill:#92897B;}
</style>
<g>
	<path class="st0" d="M403.9,248.2H228.7V77.9l-6.6-6.6h-74l-6.6,6.7l3.4,315.2L46,336.7l-8.8,2.2L0,397.6l1.9,9l157.2,103.2
		l3.6,1.1l187.1,1l4.2-1.5l56.2-45.5l2.4-5.2l-2.1-205.1L403.9,248.2z M347.5,498.8l-182.7-1L14.6,399.2l30.4-48l103.3,59.1l9.9-5.8
		l-3.4-320.1h60.8v170.3l6.6,6.6h175.3l2,195.4L347.5,498.8z"/>
	<path class="st0" d="M105,156c-10.9-15.2-16.7-33.2-16.7-52.1c0-50,41.3-90.7,92-90.7c50.6,0,91.7,40.7,91.7,90.7
		c0,17.4-5.1,34.6-14.8,49.6l11.1,7.1c11-17.2,16.8-36.8,16.8-56.7c0-2.7-0.2-5.3-0.4-8h148.3l-34.4,37.3l9.7,8.9l44.6-48.3l0-9
		l-44.6-48l-9.6,9L433,82.7H283C273.1,35.6,230.8,0,180.3,0c-58,0-105.2,46.6-105.2,103.9c0,21.7,6.6,42.4,19.1,59.8L105,156z"/>
</g>
</svg>
