<?xml version="1.0" encoding="utf-8"?>
<!-- Generator: Adobe Illustrator 27.7.0, SVG Export Plug-In . SVG Version: 6.00 Build 0)  -->
<svg version="1.1" id="레이어_1" xmlns="http://www.w3.org/2000/svg" xmlns:xlink="http://www.w3.org/1999/xlink" x="0px"
	 y="0px" viewBox="0 0 48 512" style="enable-background:new 0 0 48 512;" xml:space="preserve">
<g>
	<path d="M24,49.5c13.3,0,24-11.1,24-24.8S37.3,0,24,0S0,11.1,0,24.8S10.8,49.5,24,49.5z"/>
	<path d="M24,154.2c-13.3,0-24,11.1-24,24.8c0,13.7,10.8,24.8,24,24.8s24-11.1,24-24.8C48,165.2,37.3,154.2,24,154.2z"/>
	<path d="M24,308.3c-13.3,0-24,11.1-24,24.8s10.8,24.8,24,24.8s24-11.1,24-24.8S37.3,308.3,24,308.3z"/>
	<path d="M24,462.5c-13.3,0-24,11.1-24,24.8C0,500.9,10.8,512,24,512s24-11.1,24-24.8C48,473.6,37.3,462.5,24,462.5z"/>
</g>
</svg>
